<svg xmlns="http://www.w3.org/2000/svg" xmlns:xlink="http://www.w3.org/1999/xlink" width="500" zoomAndPan="magnify" viewBox="0 0 375 374.999991" height="500" preserveAspectRatio="xMidYMid meet" version="1.0"><defs><g/><clipPath id="f47cba0dd5"><path d="M 55.210938 21.582031 L 319.527344 21.582031 L 319.527344 285.898438 L 55.210938 285.898438 Z M 55.210938 21.582031 " clip-rule="nonzero"/></clipPath><clipPath id="e24a9e65e9"><path d="M 154 114 L 222 114 L 222 216.882812 L 154 216.882812 Z M 154 114 " clip-rule="nonzero"/></clipPath><clipPath id="be63530c5e"><path d="M 185 90.699219 L 191 90.699219 L 191 105 L 185 105 Z M 185 90.699219 " clip-rule="nonzero"/></clipPath><clipPath id="7096d9b0a3"><path d="M 229 129 L 243.429688 129 L 243.429688 138 L 229 138 Z M 229 129 " clip-rule="nonzero"/></clipPath><clipPath id="5cbaf5c85e"><path d="M 131.433594 160 L 146 160 L 146 169 L 131.433594 169 Z M 131.433594 160 " clip-rule="nonzero"/></clipPath><clipPath id="b34a50317c"><path d="M 131.433594 129 L 146 129 L 146 137 L 131.433594 137 Z M 131.433594 129 " clip-rule="nonzero"/></clipPath></defs><g clip-path="url(#f47cba0dd5)"><path fill="#00467f" d="M 187.5 59.523438 C 239.570312 59.523438 281.847656 101.796875 281.847656 153.867188 C 281.847656 205.941406 239.570312 248.214844 187.5 248.214844 C 135.425781 248.214844 93.152344 205.941406 93.152344 153.867188 C 93.152344 101.796875 135.425781 59.523438 187.5 59.523438 Z M 195.367188 21.90625 C 190.125 21.59375 184.871094 21.59375 179.632812 21.90625 L 170.503906 42.792969 C 162.351562 44.042969 154.363281 46.183594 146.679688 49.175781 L 128.328125 35.652344 C 123.636719 38 119.085938 40.628906 114.703125 43.519531 L 117.242188 66.175781 C 110.804688 71.328125 104.957031 77.175781 99.800781 83.613281 L 77.148438 81.074219 C 74.257812 85.457031 71.632812 90.007812 69.28125 94.699219 L 82.808594 113.050781 C 79.8125 120.734375 77.671875 128.722656 76.425781 136.871094 L 55.535156 146 C 55.222656 151.242188 55.222656 156.496094 55.535156 161.734375 L 76.425781 170.867188 C 77.671875 179.015625 79.8125 187.003906 82.808594 194.6875 L 69.28125 213.039062 C 71.632812 217.730469 74.257812 222.28125 77.148438 226.664062 L 99.804688 224.125 C 104.957031 230.558594 110.804688 236.410156 117.242188 241.5625 L 114.703125 264.21875 C 119.085938 267.109375 123.636719 269.734375 128.332031 272.085938 L 146.679688 258.5625 C 154.363281 261.554688 162.351562 263.695312 170.503906 264.941406 L 179.632812 285.832031 C 184.871094 286.144531 190.125 286.144531 195.367188 285.832031 L 204.496094 264.941406 C 212.644531 263.695312 220.632812 261.554688 228.316406 258.5625 L 246.667969 272.085938 C 251.359375 269.738281 255.910156 267.109375 260.292969 264.21875 L 257.753906 241.5625 C 264.191406 236.40625 270.039062 230.558594 275.195312 224.125 L 297.847656 226.664062 C 300.738281 222.28125 303.367188 217.730469 305.714844 213.039062 L 292.191406 194.6875 C 295.183594 187.003906 297.324219 179.015625 298.574219 170.867188 L 319.460938 161.734375 C 319.773438 156.496094 319.773438 151.242188 319.460938 146 L 298.574219 136.871094 C 297.324219 128.722656 295.183594 120.734375 292.191406 113.050781 L 305.714844 94.703125 C 303.367188 90.007812 300.738281 85.457031 297.847656 81.074219 L 275.195312 83.613281 C 270.039062 77.179688 264.191406 71.332031 257.753906 66.175781 L 260.292969 43.519531 C 255.910156 40.628906 251.359375 38.003906 246.667969 35.652344 L 228.316406 49.179688 C 220.636719 46.183594 212.648438 44.042969 204.496094 42.796875 Z M 195.367188 21.90625 " fill-opacity="1" fill-rule="evenodd"/></g><g clip-path="url(#e24a9e65e9)"><path fill="#00467f" d="M 196.632812 210.140625 C 200.664062 209.871094 203.863281 206.515625 203.863281 202.417969 L 203.863281 189.023438 C 203.863281 183.152344 206.375 177.457031 210.75 173.394531 C 218.472656 166.230469 222.359375 156.078125 221.417969 145.539062 C 219.957031 129.238281 206.53125 116.097656 190.1875 114.96875 C 188.578125 114.855469 187.011719 114.855469 185.402344 114.96875 C 169.058594 116.097656 155.632812 129.238281 154.171875 145.539062 C 153.230469 156.078125 157.117188 166.234375 164.839844 173.394531 C 169.21875 177.457031 171.726562 183.152344 171.726562 189.023438 L 171.726562 202.417969 C 171.726562 206.515625 174.929688 209.871094 178.957031 210.140625 C 179.996094 213.667969 183.484375 217.035156 187.796875 217.035156 C 192.105469 217.035156 195.597656 213.667969 196.632812 210.140625 Z M 175.941406 197.472656 L 199.652344 197.472656 L 199.652344 199.609375 L 175.941406 199.609375 Z M 167.703125 170.308594 C 160.945312 164.039062 157.542969 155.148438 158.367188 145.914062 C 159.644531 131.652344 171.390625 120.15625 185.691406 119.167969 C 187.105469 119.070312 188.484375 119.070312 189.898438 119.167969 C 204.199219 120.15625 215.945312 131.652344 217.222656 145.914062 C 218.050781 155.144531 214.648438 164.039062 207.886719 170.308594 C 203.175781 174.679688 200.273438 180.636719 199.738281 186.917969 L 194.292969 186.917969 L 194.292969 160.039062 L 197.058594 160.039062 C 200.902344 160.039062 204.03125 156.910156 204.03125 153.066406 C 204.03125 149.21875 200.902344 146.089844 197.058594 146.089844 C 193.210938 146.089844 190.082031 149.21875 190.082031 153.066406 L 190.082031 155.828125 L 185.507812 155.828125 L 185.507812 153.066406 C 185.507812 149.21875 182.378906 146.089844 178.535156 146.089844 C 174.6875 146.089844 171.558594 149.21875 171.558594 153.066406 C 171.558594 156.910156 174.6875 160.039062 178.535156 160.039062 L 181.296875 160.039062 L 181.296875 186.917969 L 175.851562 186.917969 C 175.316406 180.636719 172.414062 174.675781 167.703125 170.308594 Z M 181.296875 155.828125 L 178.535156 155.828125 C 177.007812 155.828125 175.769531 154.589844 175.769531 153.066406 C 175.769531 151.539062 177.007812 150.300781 178.535156 150.300781 C 180.058594 150.300781 181.296875 151.539062 181.296875 153.066406 Z M 185.507812 160.039062 L 190.082031 160.039062 L 190.082031 186.917969 L 185.507812 186.917969 Z M 194.292969 155.828125 L 194.292969 153.066406 C 194.292969 151.539062 195.53125 150.300781 197.058594 150.300781 C 198.582031 150.300781 199.820312 151.539062 199.820312 153.066406 C 199.820312 154.589844 198.582031 155.828125 197.058594 155.828125 Z M 199.648438 191.128906 L 199.648438 193.261719 L 175.941406 193.261719 L 175.941406 191.128906 Z M 176.230469 203.820312 L 199.359375 203.820312 C 198.8125 205.074219 197.566406 205.953125 196.113281 205.953125 L 179.476562 205.953125 C 178.023438 205.953125 176.777344 205.074219 176.230469 203.820312 Z M 187.796875 212.820312 C 185.988281 212.820312 184.410156 211.5625 183.542969 210.167969 L 192.046875 210.167969 C 191.183594 211.5625 189.601562 212.820312 187.796875 212.820312 Z M 187.796875 212.820312 " fill-opacity="1" fill-rule="nonzero"/></g><g clip-path="url(#be63530c5e)"><path fill="#00467f" d="M 185.5625 92.929688 L 185.5625 102.710938 C 185.5625 103.9375 186.566406 104.941406 187.796875 104.941406 C 189.023438 104.941406 190.027344 103.9375 190.027344 102.710938 L 190.027344 92.929688 C 190.027344 91.703125 189.023438 90.699219 187.796875 90.699219 C 186.566406 90.699219 185.5625 91.703125 185.5625 92.929688 Z M 185.5625 92.929688 " fill-opacity="1" fill-rule="nonzero"/></g><path fill="#00467f" d="M 222.035156 102.035156 C 221.042969 101.3125 219.636719 101.535156 218.917969 102.527344 L 213.167969 110.441406 C 212.445312 111.433594 212.667969 112.835938 213.660156 113.558594 C 214.65625 114.28125 216.058594 114.058594 216.777344 113.066406 L 222.527344 105.152344 C 223.25 104.160156 223.027344 102.753906 222.035156 102.035156 Z M 222.035156 102.035156 " fill-opacity="1" fill-rule="nonzero"/><g clip-path="url(#7096d9b0a3)"><path fill="#00467f" d="M 243.070312 131.328125 C 242.691406 130.160156 241.425781 129.515625 240.257812 129.894531 L 230.957031 132.917969 C 229.789062 133.296875 229.144531 134.5625 229.523438 135.730469 C 229.902344 136.898438 231.167969 137.542969 232.335938 137.164062 L 241.636719 134.140625 C 242.804688 133.761719 243.449219 132.496094 243.070312 131.328125 Z M 243.070312 131.328125 " fill-opacity="1" fill-rule="nonzero"/></g><path fill="#00467f" d="M 240.058594 168.828125 C 241.226562 169.207031 242.492188 168.5625 242.871094 167.394531 C 243.25 166.226562 242.605469 164.960938 241.4375 164.582031 L 232.136719 161.558594 C 230.96875 161.179688 229.703125 161.824219 229.324219 162.992188 C 228.941406 164.160156 229.585938 165.425781 230.753906 165.804688 Z M 240.058594 168.828125 " fill-opacity="1" fill-rule="nonzero"/><path fill="#00467f" d="M 218.390625 195.960938 C 219.113281 196.953125 220.515625 197.175781 221.507812 196.453125 C 222.503906 195.734375 222.722656 194.332031 222.003906 193.335938 L 216.253906 185.425781 C 215.53125 184.429688 214.128906 184.210938 213.136719 184.929688 C 212.144531 185.652344 211.921875 187.054688 212.640625 188.046875 Z M 218.390625 195.960938 " fill-opacity="1" fill-rule="nonzero"/><path fill="#00467f" d="M 152.90625 196.074219 C 153.902344 196.792969 155.304688 196.574219 156.027344 195.578125 L 161.773438 187.667969 C 162.496094 186.671875 162.273438 185.269531 161.28125 184.546875 C 160.289062 183.828125 158.886719 184.050781 158.164062 185.042969 L 152.414062 192.953125 C 151.691406 193.949219 151.914062 195.351562 152.90625 196.074219 Z M 152.90625 196.074219 " fill-opacity="1" fill-rule="nonzero"/><g clip-path="url(#5cbaf5c85e)"><path fill="#00467f" d="M 134.683594 168.210938 L 143.984375 165.1875 C 145.152344 164.808594 145.796875 163.542969 145.417969 162.375 C 145.039062 161.207031 143.773438 160.5625 142.605469 160.941406 L 133.304688 163.964844 C 132.136719 164.34375 131.492188 165.609375 131.871094 166.777344 C 132.25 167.945312 133.515625 168.589844 134.683594 168.210938 Z M 134.683594 168.210938 " fill-opacity="1" fill-rule="nonzero"/></g><g clip-path="url(#b34a50317c)"><path fill="#00467f" d="M 133.503906 133.523438 L 142.804688 136.546875 C 143.972656 136.925781 145.238281 136.28125 145.617188 135.113281 C 146 133.945312 145.351562 132.679688 144.1875 132.300781 L 134.882812 129.277344 C 133.714844 128.898438 132.449219 129.542969 132.070312 130.710938 C 131.691406 131.878906 132.335938 133.144531 133.503906 133.523438 Z M 133.503906 133.523438 " fill-opacity="1" fill-rule="nonzero"/></g><path fill="#00467f" d="M 158.6875 112.683594 C 159.410156 113.675781 160.8125 113.898438 161.804688 113.175781 C 162.800781 112.453125 163.019531 111.050781 162.300781 110.058594 L 156.550781 102.144531 C 155.828125 101.152344 154.425781 100.929688 153.433594 101.652344 C 152.4375 102.375 152.21875 103.777344 152.9375 104.769531 Z M 158.6875 112.683594 " fill-opacity="1" fill-rule="nonzero"/><g fill="#00467f" fill-opacity="1"><g transform="translate(77.632737, 321.224629)"><g><path d="M 1.84375 -14.359375 L 12.515625 -14.359375 L 12.515625 -11.484375 L 4.921875 -11.484375 L 4.921875 -8.71875 L 10.875 -8.71875 L 10.875 -5.953125 L 4.921875 -5.953125 L 4.921875 -2.875 L 12.71875 -2.875 L 12.71875 0 L 1.84375 0 Z M 1.84375 -14.359375 "/></g></g></g><g fill="#00467f" fill-opacity="1"><g transform="translate(92.653132, 321.224629)"><g><path d="M 1.84375 -14.359375 L 4.609375 -14.359375 L 11.59375 -5.4375 L 11.59375 -14.359375 L 14.671875 -14.359375 L 14.671875 0 L 11.90625 0 L 4.921875 -8.921875 L 4.921875 0 L 1.84375 0 Z M 1.84375 -14.359375 "/></g></g></g><g fill="#00467f" fill-opacity="1"><g transform="translate(110.546269, 321.224629)"><g><path d="M 8.71875 0.3125 C 7.613281 0.3125 6.582031 0.113281 5.625 -0.28125 C 4.675781 -0.675781 3.851562 -1.210938 3.15625 -1.890625 C 2.457031 -2.566406 1.910156 -3.359375 1.515625 -4.265625 C 1.117188 -5.179688 0.921875 -6.15625 0.921875 -7.1875 C 0.921875 -8.207031 1.117188 -9.171875 1.515625 -10.078125 C 1.910156 -10.992188 2.457031 -11.789062 3.15625 -12.46875 C 3.851562 -13.144531 4.675781 -13.679688 5.625 -14.078125 C 6.582031 -14.472656 7.613281 -14.671875 8.71875 -14.671875 C 9.71875 -14.671875 10.597656 -14.519531 11.359375 -14.21875 C 12.117188 -13.914062 12.75 -13.585938 13.25 -13.234375 C 13.84375 -12.804688 14.347656 -12.328125 14.765625 -11.796875 L 12.71875 -9.75 C 12.414062 -10.125 12.066406 -10.460938 11.671875 -10.765625 C 11.328125 -11.023438 10.910156 -11.257812 10.421875 -11.46875 C 9.929688 -11.6875 9.363281 -11.796875 8.71875 -11.796875 C 8.070312 -11.796875 7.46875 -11.675781 6.90625 -11.4375 C 6.351562 -11.195312 5.867188 -10.867188 5.453125 -10.453125 C 5.035156 -10.035156 4.707031 -9.546875 4.46875 -8.984375 C 4.226562 -8.421875 4.109375 -7.820312 4.109375 -7.1875 C 4.109375 -6.539062 4.226562 -5.9375 4.46875 -5.375 C 4.707031 -4.8125 5.035156 -4.320312 5.453125 -3.90625 C 5.867188 -3.488281 6.351562 -3.160156 6.90625 -2.921875 C 7.46875 -2.679688 8.070312 -2.5625 8.71875 -2.5625 C 9.238281 -2.5625 9.691406 -2.613281 10.078125 -2.71875 C 10.472656 -2.832031 10.804688 -2.96875 11.078125 -3.125 C 11.390625 -3.28125 11.664062 -3.46875 11.90625 -3.6875 L 11.90625 -5.4375 L 9.234375 -5.4375 L 9.234375 -7.90625 L 14.96875 -7.90625 L 14.96875 -2.46875 C 14.519531 -1.945312 13.988281 -1.476562 13.375 -1.0625 C 12.851562 -0.707031 12.203125 -0.390625 11.421875 -0.109375 C 10.648438 0.171875 9.75 0.3125 8.71875 0.3125 Z M 8.71875 0.3125 "/></g></g></g><g fill="#00467f" fill-opacity="1"><g transform="translate(128.234216, 321.224629)"><g><path d="M 1.84375 -14.359375 L 4.921875 -14.359375 L 4.921875 0 L 1.84375 0 Z M 1.84375 -14.359375 "/></g></g></g><g fill="#00467f" fill-opacity="1"><g transform="translate(136.380532, 321.224629)"><g><path d="M 1.84375 -14.359375 L 4.609375 -14.359375 L 11.59375 -5.4375 L 11.59375 -14.359375 L 14.671875 -14.359375 L 14.671875 0 L 11.90625 0 L 4.921875 -8.921875 L 4.921875 0 L 1.84375 0 Z M 1.84375 -14.359375 "/></g></g></g><g fill="#00467f" fill-opacity="1"><g transform="translate(154.273665, 321.224629)"><g><path d="M 1.84375 -14.359375 L 12.515625 -14.359375 L 12.515625 -11.484375 L 4.921875 -11.484375 L 4.921875 -8.71875 L 10.875 -8.71875 L 10.875 -5.953125 L 4.921875 -5.953125 L 4.921875 -2.875 L 12.71875 -2.875 L 12.71875 0 L 1.84375 0 Z M 1.84375 -14.359375 "/></g></g></g><g fill="#00467f" fill-opacity="1"><g transform="translate(169.294058, 321.224629)"><g><path d="M 1.84375 -14.359375 L 12.515625 -14.359375 L 12.515625 -11.484375 L 4.921875 -11.484375 L 4.921875 -8.71875 L 10.875 -8.71875 L 10.875 -5.953125 L 4.921875 -5.953125 L 4.921875 -2.875 L 12.71875 -2.875 L 12.71875 0 L 1.84375 0 Z M 1.84375 -14.359375 "/></g></g></g><g fill="#00467f" fill-opacity="1"><g transform="translate(184.31445, 321.224629)"><g><path d="M 1.84375 -14.359375 L 8.203125 -14.359375 C 8.972656 -14.359375 9.664062 -14.238281 10.28125 -14 C 10.90625 -13.769531 11.4375 -13.441406 11.875 -13.015625 C 12.3125 -12.597656 12.644531 -12.09375 12.875 -11.5 C 13.113281 -10.90625 13.234375 -10.253906 13.234375 -9.546875 C 13.234375 -8.722656 13.101562 -8.035156 12.84375 -7.484375 C 12.59375 -6.941406 12.3125 -6.515625 12 -6.203125 C 11.644531 -5.828125 11.234375 -5.535156 10.765625 -5.328125 L 13.75 0 L 10.359375 0 L 7.796875 -4.71875 L 4.921875 -4.71875 L 4.921875 0 L 1.84375 0 Z M 8.109375 -7.59375 C 8.679688 -7.59375 9.144531 -7.769531 9.5 -8.125 C 9.863281 -8.488281 10.046875 -8.960938 10.046875 -9.546875 C 10.046875 -10.117188 9.863281 -10.582031 9.5 -10.9375 C 9.144531 -11.300781 8.679688 -11.484375 8.109375 -11.484375 L 4.921875 -11.484375 L 4.921875 -7.59375 Z M 8.109375 -7.59375 "/></g></g></g><g fill="#00467f" fill-opacity="1"><g transform="translate(200.155624, 321.224629)"><g><path d="M 1.84375 -14.359375 L 4.921875 -14.359375 L 4.921875 0 L 1.84375 0 Z M 1.84375 -14.359375 "/></g></g></g><g fill="#00467f" fill-opacity="1"><g transform="translate(208.30194, 321.224629)"><g><path d="M 1.84375 -14.359375 L 4.609375 -14.359375 L 11.59375 -5.4375 L 11.59375 -14.359375 L 14.671875 -14.359375 L 14.671875 0 L 11.90625 0 L 4.921875 -8.921875 L 4.921875 0 L 1.84375 0 Z M 1.84375 -14.359375 "/></g></g></g><g fill="#00467f" fill-opacity="1"><g transform="translate(226.195074, 321.224629)"><g><path d="M 8.71875 0.3125 C 7.613281 0.3125 6.582031 0.113281 5.625 -0.28125 C 4.675781 -0.675781 3.851562 -1.210938 3.15625 -1.890625 C 2.457031 -2.566406 1.910156 -3.359375 1.515625 -4.265625 C 1.117188 -5.179688 0.921875 -6.15625 0.921875 -7.1875 C 0.921875 -8.207031 1.117188 -9.171875 1.515625 -10.078125 C 1.910156 -10.992188 2.457031 -11.789062 3.15625 -12.46875 C 3.851562 -13.144531 4.675781 -13.679688 5.625 -14.078125 C 6.582031 -14.472656 7.613281 -14.671875 8.71875 -14.671875 C 9.71875 -14.671875 10.597656 -14.519531 11.359375 -14.21875 C 12.117188 -13.914062 12.75 -13.585938 13.25 -13.234375 C 13.84375 -12.804688 14.347656 -12.328125 14.765625 -11.796875 L 12.71875 -9.75 C 12.414062 -10.125 12.066406 -10.460938 11.671875 -10.765625 C 11.328125 -11.023438 10.910156 -11.257812 10.421875 -11.46875 C 9.929688 -11.6875 9.363281 -11.796875 8.71875 -11.796875 C 8.070312 -11.796875 7.46875 -11.675781 6.90625 -11.4375 C 6.351562 -11.195312 5.867188 -10.867188 5.453125 -10.453125 C 5.035156 -10.035156 4.707031 -9.546875 4.46875 -8.984375 C 4.226562 -8.421875 4.109375 -7.820312 4.109375 -7.1875 C 4.109375 -6.539062 4.226562 -5.9375 4.46875 -5.375 C 4.707031 -4.8125 5.035156 -4.320312 5.453125 -3.90625 C 5.867188 -3.488281 6.351562 -3.160156 6.90625 -2.921875 C 7.46875 -2.679688 8.070312 -2.5625 8.71875 -2.5625 C 9.238281 -2.5625 9.691406 -2.613281 10.078125 -2.71875 C 10.472656 -2.832031 10.804688 -2.96875 11.078125 -3.125 C 11.390625 -3.28125 11.664062 -3.46875 11.90625 -3.6875 L 11.90625 -5.4375 L 9.234375 -5.4375 L 9.234375 -7.90625 L 14.96875 -7.90625 L 14.96875 -2.46875 C 14.519531 -1.945312 13.988281 -1.476562 13.375 -1.0625 C 12.851562 -0.707031 12.203125 -0.390625 11.421875 -0.109375 C 10.648438 0.171875 9.75 0.3125 8.71875 0.3125 Z M 8.71875 0.3125 "/></g></g></g><g fill="#00467f" fill-opacity="1"><g transform="translate(243.883015, 321.224629)"><g/></g></g><g fill="#00467f" fill-opacity="1"><g transform="translate(249.566986, 321.224629)"><g><path d="M 1.84375 -14.359375 L 12.40625 -14.359375 L 12.40625 -11.484375 L 4.921875 -11.484375 L 4.921875 -8.109375 L 10.765625 -8.109375 L 10.765625 -5.234375 L 4.921875 -5.234375 L 4.921875 0 L 1.84375 0 Z M 1.84375 -14.359375 "/></g></g></g><g fill="#00467f" fill-opacity="1"><g transform="translate(264.074386, 321.224629)"><g><path d="M 8.71875 0.3125 C 7.613281 0.3125 6.582031 0.113281 5.625 -0.28125 C 4.675781 -0.675781 3.851562 -1.210938 3.15625 -1.890625 C 2.457031 -2.566406 1.910156 -3.359375 1.515625 -4.265625 C 1.117188 -5.179688 0.921875 -6.15625 0.921875 -7.1875 C 0.921875 -8.207031 1.117188 -9.171875 1.515625 -10.078125 C 1.910156 -10.992188 2.457031 -11.789062 3.15625 -12.46875 C 3.851562 -13.144531 4.675781 -13.679688 5.625 -14.078125 C 6.582031 -14.472656 7.613281 -14.671875 8.71875 -14.671875 C 9.820312 -14.671875 10.847656 -14.472656 11.796875 -14.078125 C 12.753906 -13.679688 13.582031 -13.144531 14.28125 -12.46875 C 14.976562 -11.789062 15.523438 -10.992188 15.921875 -10.078125 C 16.316406 -9.171875 16.515625 -8.207031 16.515625 -7.1875 C 16.515625 -6.15625 16.316406 -5.179688 15.921875 -4.265625 C 15.523438 -3.359375 14.976562 -2.566406 14.28125 -1.890625 C 13.582031 -1.210938 12.753906 -0.675781 11.796875 -0.28125 C 10.847656 0.113281 9.820312 0.3125 8.71875 0.3125 Z M 8.71875 -2.5625 C 9.363281 -2.5625 9.960938 -2.679688 10.515625 -2.921875 C 11.078125 -3.160156 11.566406 -3.488281 11.984375 -3.90625 C 12.398438 -4.320312 12.726562 -4.8125 12.96875 -5.375 C 13.207031 -5.9375 13.328125 -6.539062 13.328125 -7.1875 C 13.328125 -7.820312 13.207031 -8.421875 12.96875 -8.984375 C 12.726562 -9.546875 12.398438 -10.035156 11.984375 -10.453125 C 11.566406 -10.867188 11.078125 -11.195312 10.515625 -11.4375 C 9.960938 -11.675781 9.363281 -11.796875 8.71875 -11.796875 C 8.070312 -11.796875 7.46875 -11.675781 6.90625 -11.4375 C 6.351562 -11.195312 5.867188 -10.867188 5.453125 -10.453125 C 5.035156 -10.035156 4.707031 -9.546875 4.46875 -8.984375 C 4.226562 -8.421875 4.109375 -7.820312 4.109375 -7.1875 C 4.109375 -6.539062 4.226562 -5.9375 4.46875 -5.375 C 4.707031 -4.8125 5.035156 -4.320312 5.453125 -3.90625 C 5.867188 -3.488281 6.351562 -3.160156 6.90625 -2.921875 C 7.46875 -2.679688 8.070312 -2.5625 8.71875 -2.5625 Z M 8.71875 -2.5625 "/></g></g></g><g fill="#00467f" fill-opacity="1"><g transform="translate(282.890909, 321.224629)"><g><path d="M 1.84375 -14.359375 L 8.203125 -14.359375 C 8.972656 -14.359375 9.664062 -14.238281 10.28125 -14 C 10.90625 -13.769531 11.4375 -13.441406 11.875 -13.015625 C 12.3125 -12.597656 12.644531 -12.09375 12.875 -11.5 C 13.113281 -10.90625 13.234375 -10.253906 13.234375 -9.546875 C 13.234375 -8.722656 13.101562 -8.035156 12.84375 -7.484375 C 12.59375 -6.941406 12.3125 -6.515625 12 -6.203125 C 11.644531 -5.828125 11.234375 -5.535156 10.765625 -5.328125 L 13.75 0 L 10.359375 0 L 7.796875 -4.71875 L 4.921875 -4.71875 L 4.921875 0 L 1.84375 0 Z M 8.109375 -7.59375 C 8.679688 -7.59375 9.144531 -7.769531 9.5 -8.125 C 9.863281 -8.488281 10.046875 -8.960938 10.046875 -9.546875 C 10.046875 -10.117188 9.863281 -10.582031 9.5 -10.9375 C 9.144531 -11.300781 8.679688 -11.484375 8.109375 -11.484375 L 4.921875 -11.484375 L 4.921875 -7.59375 Z M 8.109375 -7.59375 "/></g></g></g><g fill="#00467f" fill-opacity="1"><g transform="translate(16.624928, 349.724627)"><g><path d="M 5.953125 0.3125 C 5.015625 0.3125 4.203125 0.195312 3.515625 -0.03125 C 2.828125 -0.269531 2.25 -0.535156 1.78125 -0.828125 C 1.238281 -1.148438 0.78125 -1.523438 0.40625 -1.953125 L 2.46875 -4 C 2.707031 -3.707031 3 -3.445312 3.34375 -3.21875 C 3.632812 -3.03125 3.988281 -2.859375 4.40625 -2.703125 C 4.820312 -2.546875 5.300781 -2.46875 5.84375 -2.46875 C 6.664062 -2.46875 7.265625 -2.625 7.640625 -2.9375 C 8.015625 -3.25 8.203125 -3.640625 8.203125 -4.109375 C 8.203125 -4.515625 8.023438 -4.835938 7.671875 -5.078125 C 7.316406 -5.316406 6.875 -5.53125 6.34375 -5.71875 C 5.8125 -5.914062 5.234375 -6.113281 4.609375 -6.3125 C 3.992188 -6.519531 3.421875 -6.789062 2.890625 -7.125 C 2.359375 -7.457031 1.914062 -7.890625 1.5625 -8.421875 C 1.207031 -8.953125 1.03125 -9.632812 1.03125 -10.46875 C 1.03125 -11.019531 1.148438 -11.550781 1.390625 -12.0625 C 1.628906 -12.582031 1.96875 -13.03125 2.40625 -13.40625 C 2.851562 -13.789062 3.398438 -14.097656 4.046875 -14.328125 C 4.703125 -14.554688 5.4375 -14.671875 6.25 -14.671875 C 7.050781 -14.671875 7.753906 -14.566406 8.359375 -14.359375 C 8.960938 -14.148438 9.46875 -13.925781 9.875 -13.6875 C 10.332031 -13.394531 10.734375 -13.070312 11.078125 -12.71875 L 9.03125 -10.671875 C 8.8125 -10.898438 8.570312 -11.101562 8.3125 -11.28125 C 8.070312 -11.4375 7.785156 -11.578125 7.453125 -11.703125 C 7.128906 -11.835938 6.765625 -11.90625 6.359375 -11.90625 C 5.578125 -11.90625 5.019531 -11.765625 4.6875 -11.484375 C 4.363281 -11.210938 4.203125 -10.875 4.203125 -10.46875 C 4.203125 -10.050781 4.378906 -9.722656 4.734375 -9.484375 C 5.085938 -9.242188 5.53125 -9.03125 6.0625 -8.84375 C 6.601562 -8.65625 7.179688 -8.457031 7.796875 -8.25 C 8.410156 -8.039062 8.984375 -7.769531 9.515625 -7.4375 C 10.046875 -7.101562 10.488281 -6.671875 10.84375 -6.140625 C 11.207031 -5.617188 11.390625 -4.941406 11.390625 -4.109375 C 11.390625 -3.515625 11.265625 -2.953125 11.015625 -2.421875 C 10.765625 -1.890625 10.40625 -1.421875 9.9375 -1.015625 C 9.46875 -0.609375 8.894531 -0.285156 8.21875 -0.046875 C 7.550781 0.191406 6.796875 0.3125 5.953125 0.3125 Z M 5.953125 0.3125 "/></g></g></g><g fill="#00467f" fill-opacity="1"><g transform="translate(30.003749, 349.724627)"><g><path d="M 8 0.3125 C 7.070312 0.3125 6.222656 0.160156 5.453125 -0.140625 C 4.691406 -0.453125 4.035156 -0.878906 3.484375 -1.421875 C 2.941406 -1.972656 2.515625 -2.628906 2.203125 -3.390625 C 1.898438 -4.160156 1.75 -5.015625 1.75 -5.953125 L 1.75 -14.359375 L 4.828125 -14.359375 L 4.828125 -5.953125 C 4.828125 -5.429688 4.90625 -4.960938 5.0625 -4.546875 C 5.21875 -4.140625 5.4375 -3.785156 5.71875 -3.484375 C 6 -3.179688 6.332031 -2.953125 6.71875 -2.796875 C 7.101562 -2.640625 7.53125 -2.5625 8 -2.5625 C 8.46875 -2.5625 8.894531 -2.640625 9.28125 -2.796875 C 9.675781 -2.953125 10.007812 -3.179688 10.28125 -3.484375 C 10.5625 -3.785156 10.78125 -4.140625 10.9375 -4.546875 C 11.101562 -4.960938 11.1875 -5.429688 11.1875 -5.953125 L 11.1875 -14.359375 L 14.265625 -14.359375 L 14.265625 -5.953125 C 14.265625 -5.015625 14.109375 -4.160156 13.796875 -3.390625 C 13.484375 -2.628906 13.050781 -1.972656 12.5 -1.421875 C 11.957031 -0.878906 11.300781 -0.453125 10.53125 -0.140625 C 9.757812 0.160156 8.914062 0.3125 8 0.3125 Z M 8 0.3125 "/></g></g></g><g fill="#00467f" fill-opacity="1"><g transform="translate(47.383893, 349.724627)"><g><path d="M 5.953125 0.3125 C 5.015625 0.3125 4.203125 0.195312 3.515625 -0.03125 C 2.828125 -0.269531 2.25 -0.535156 1.78125 -0.828125 C 1.238281 -1.148438 0.78125 -1.523438 0.40625 -1.953125 L 2.46875 -4 C 2.707031 -3.707031 3 -3.445312 3.34375 -3.21875 C 3.632812 -3.03125 3.988281 -2.859375 4.40625 -2.703125 C 4.820312 -2.546875 5.300781 -2.46875 5.84375 -2.46875 C 6.664062 -2.46875 7.265625 -2.625 7.640625 -2.9375 C 8.015625 -3.25 8.203125 -3.640625 8.203125 -4.109375 C 8.203125 -4.515625 8.023438 -4.835938 7.671875 -5.078125 C 7.316406 -5.316406 6.875 -5.53125 6.34375 -5.71875 C 5.8125 -5.914062 5.234375 -6.113281 4.609375 -6.3125 C 3.992188 -6.519531 3.421875 -6.789062 2.890625 -7.125 C 2.359375 -7.457031 1.914062 -7.890625 1.5625 -8.421875 C 1.207031 -8.953125 1.03125 -9.632812 1.03125 -10.46875 C 1.03125 -11.019531 1.148438 -11.550781 1.390625 -12.0625 C 1.628906 -12.582031 1.96875 -13.03125 2.40625 -13.40625 C 2.851562 -13.789062 3.398438 -14.097656 4.046875 -14.328125 C 4.703125 -14.554688 5.4375 -14.671875 6.25 -14.671875 C 7.050781 -14.671875 7.753906 -14.566406 8.359375 -14.359375 C 8.960938 -14.148438 9.46875 -13.925781 9.875 -13.6875 C 10.332031 -13.394531 10.734375 -13.070312 11.078125 -12.71875 L 9.03125 -10.671875 C 8.8125 -10.898438 8.570312 -11.101562 8.3125 -11.28125 C 8.070312 -11.4375 7.785156 -11.578125 7.453125 -11.703125 C 7.128906 -11.835938 6.765625 -11.90625 6.359375 -11.90625 C 5.578125 -11.90625 5.019531 -11.765625 4.6875 -11.484375 C 4.363281 -11.210938 4.203125 -10.875 4.203125 -10.46875 C 4.203125 -10.050781 4.378906 -9.722656 4.734375 -9.484375 C 5.085938 -9.242188 5.53125 -9.03125 6.0625 -8.84375 C 6.601562 -8.65625 7.179688 -8.457031 7.796875 -8.25 C 8.410156 -8.039062 8.984375 -7.769531 9.515625 -7.4375 C 10.046875 -7.101562 10.488281 -6.671875 10.84375 -6.140625 C 11.207031 -5.617188 11.390625 -4.941406 11.390625 -4.109375 C 11.390625 -3.515625 11.265625 -2.953125 11.015625 -2.421875 C 10.765625 -1.890625 10.40625 -1.421875 9.9375 -1.015625 C 9.46875 -0.609375 8.894531 -0.285156 8.21875 -0.046875 C 7.550781 0.191406 6.796875 0.3125 5.953125 0.3125 Z M 5.953125 0.3125 "/></g></g></g><g fill="#00467f" fill-opacity="1"><g transform="translate(60.762713, 349.724627)"><g><path d="M 4.515625 -11.484375 L 0.40625 -11.484375 L 0.40625 -14.359375 L 11.6875 -14.359375 L 11.6875 -11.484375 L 7.59375 -11.484375 L 7.59375 0 L 4.515625 0 Z M 4.515625 -11.484375 "/></g></g></g><g fill="#00467f" fill-opacity="1"><g transform="translate(74.24413, 349.724627)"><g><path d="M 5.640625 -14.359375 L 9.125 -14.359375 L 14.671875 0 L 11.390625 0 L 10.15625 -3.28125 L 4.609375 -3.28125 L 3.390625 0 L 0.109375 0 Z M 9.125 -6.046875 L 7.421875 -10.765625 L 7.34375 -10.765625 L 5.640625 -6.046875 Z M 9.125 -6.046875 "/></g></g></g><g fill="#00467f" fill-opacity="1"><g transform="translate(90.393104, 349.724627)"><g><path d="M 1.84375 -14.359375 L 4.921875 -14.359375 L 4.921875 0 L 1.84375 0 Z M 1.84375 -14.359375 "/></g></g></g><g fill="#00467f" fill-opacity="1"><g transform="translate(98.53942, 349.724627)"><g><path d="M 1.84375 -14.359375 L 4.609375 -14.359375 L 11.59375 -5.4375 L 11.59375 -14.359375 L 14.671875 -14.359375 L 14.671875 0 L 11.90625 0 L 4.921875 -8.921875 L 4.921875 0 L 1.84375 0 Z M 1.84375 -14.359375 "/></g></g></g><g fill="#00467f" fill-opacity="1"><g transform="translate(116.432554, 349.724627)"><g><path d="M 5.640625 -14.359375 L 9.125 -14.359375 L 14.671875 0 L 11.390625 0 L 10.15625 -3.28125 L 4.609375 -3.28125 L 3.390625 0 L 0.109375 0 Z M 9.125 -6.046875 L 7.421875 -10.765625 L 7.34375 -10.765625 L 5.640625 -6.046875 Z M 9.125 -6.046875 "/></g></g></g><g fill="#00467f" fill-opacity="1"><g transform="translate(132.581528, 349.724627)"><g><path d="M 1.84375 -14.359375 L 7.90625 -14.359375 C 8.613281 -14.359375 9.253906 -14.253906 9.828125 -14.046875 C 10.398438 -13.847656 10.882812 -13.578125 11.28125 -13.234375 C 11.675781 -12.890625 11.976562 -12.484375 12.1875 -12.015625 C 12.40625 -11.554688 12.515625 -11.070312 12.515625 -10.5625 C 12.515625 -9.988281 12.410156 -9.515625 12.203125 -9.140625 C 12.003906 -8.765625 11.78125 -8.460938 11.53125 -8.234375 C 11.238281 -7.953125 10.914062 -7.738281 10.5625 -7.59375 C 11.050781 -7.4375 11.5 -7.203125 11.90625 -6.890625 C 12.226562 -6.617188 12.53125 -6.257812 12.8125 -5.8125 C 13.09375 -5.375 13.234375 -4.804688 13.234375 -4.109375 C 13.234375 -3.546875 13.117188 -3.015625 12.890625 -2.515625 C 12.671875 -2.015625 12.347656 -1.578125 11.921875 -1.203125 C 11.492188 -0.835938 10.972656 -0.546875 10.359375 -0.328125 C 9.753906 -0.109375 9.070312 0 8.3125 0 L 1.84375 0 Z M 8.109375 -2.671875 C 8.722656 -2.671875 9.195312 -2.828125 9.53125 -3.140625 C 9.875 -3.460938 10.046875 -3.882812 10.046875 -4.40625 C 10.046875 -4.925781 9.875 -5.347656 9.53125 -5.671875 C 9.195312 -5.992188 8.722656 -6.15625 8.109375 -6.15625 L 4.921875 -6.15625 L 4.921875 -2.671875 Z M 7.6875 -8.828125 C 8.207031 -8.828125 8.609375 -8.960938 8.890625 -9.234375 C 9.179688 -9.503906 9.328125 -9.847656 9.328125 -10.265625 C 9.328125 -10.671875 9.179688 -11.007812 8.890625 -11.28125 C 8.609375 -11.550781 8.207031 -11.6875 7.6875 -11.6875 L 4.921875 -11.6875 L 4.921875 -8.828125 Z M 7.6875 -8.828125 "/></g></g></g><g fill="#00467f" fill-opacity="1"><g transform="translate(148.114913, 349.724627)"><g><path d="M 1.84375 -14.359375 L 4.921875 -14.359375 L 4.921875 -2.875 L 11.59375 -2.875 L 11.59375 0 L 1.84375 0 Z M 1.84375 -14.359375 "/></g></g></g><g fill="#00467f" fill-opacity="1"><g transform="translate(161.493731, 349.724627)"><g><path d="M 1.84375 -14.359375 L 12.515625 -14.359375 L 12.515625 -11.484375 L 4.921875 -11.484375 L 4.921875 -8.71875 L 10.875 -8.71875 L 10.875 -5.953125 L 4.921875 -5.953125 L 4.921875 -2.875 L 12.71875 -2.875 L 12.71875 0 L 1.84375 0 Z M 1.84375 -14.359375 "/></g></g></g><g fill="#00467f" fill-opacity="1"><g transform="translate(176.514123, 349.724627)"><g/></g></g><g fill="#00467f" fill-opacity="1"><g transform="translate(182.198094, 349.724627)"><g><path d="M 1.84375 -14.359375 L 7.078125 -14.359375 C 8.179688 -14.359375 9.195312 -14.171875 10.125 -13.796875 C 11.050781 -13.421875 11.851562 -12.910156 12.53125 -12.265625 C 13.207031 -11.617188 13.734375 -10.859375 14.109375 -9.984375 C 14.484375 -9.109375 14.671875 -8.175781 14.671875 -7.1875 C 14.671875 -6.1875 14.484375 -5.25 14.109375 -4.375 C 13.734375 -3.5 13.207031 -2.738281 12.53125 -2.09375 C 11.851562 -1.445312 11.050781 -0.9375 10.125 -0.5625 C 9.195312 -0.1875 8.179688 0 7.078125 0 L 1.84375 0 Z M 7.078125 -2.875 C 7.722656 -2.875 8.3125 -2.984375 8.84375 -3.203125 C 9.382812 -3.421875 9.847656 -3.71875 10.234375 -4.09375 C 10.628906 -4.476562 10.9375 -4.929688 11.15625 -5.453125 C 11.375 -5.984375 11.484375 -6.5625 11.484375 -7.1875 C 11.484375 -7.800781 11.375 -8.367188 11.15625 -8.890625 C 10.9375 -9.421875 10.628906 -9.875 10.234375 -10.25 C 9.847656 -10.632812 9.382812 -10.9375 8.84375 -11.15625 C 8.3125 -11.375 7.722656 -11.484375 7.078125 -11.484375 L 4.921875 -11.484375 L 4.921875 -2.875 Z M 7.078125 -2.875 "/></g></g></g><g fill="#00467f" fill-opacity="1"><g transform="translate(199.167851, 349.724627)"><g><path d="M 1.84375 -14.359375 L 12.515625 -14.359375 L 12.515625 -11.484375 L 4.921875 -11.484375 L 4.921875 -8.71875 L 10.875 -8.71875 L 10.875 -5.953125 L 4.921875 -5.953125 L 4.921875 -2.875 L 12.71875 -2.875 L 12.71875 0 L 1.84375 0 Z M 1.84375 -14.359375 "/></g></g></g><g fill="#00467f" fill-opacity="1"><g transform="translate(214.188254, 349.724627)"><g><path d="M 0.3125 -14.359375 L 3.59375 -14.359375 L 7.34375 -3.796875 L 7.421875 -3.796875 L 11.1875 -14.359375 L 14.46875 -14.359375 L 9.125 0 L 5.640625 0 Z M 0.3125 -14.359375 "/></g></g></g><g fill="#00467f" fill-opacity="1"><g transform="translate(230.33724, 349.724627)"><g><path d="M 1.84375 -14.359375 L 12.515625 -14.359375 L 12.515625 -11.484375 L 4.921875 -11.484375 L 4.921875 -8.71875 L 10.875 -8.71875 L 10.875 -5.953125 L 4.921875 -5.953125 L 4.921875 -2.875 L 12.71875 -2.875 L 12.71875 0 L 1.84375 0 Z M 1.84375 -14.359375 "/></g></g></g><g fill="#00467f" fill-opacity="1"><g transform="translate(245.357632, 349.724627)"><g><path d="M 1.84375 -14.359375 L 4.921875 -14.359375 L 4.921875 -2.875 L 11.59375 -2.875 L 11.59375 0 L 1.84375 0 Z M 1.84375 -14.359375 "/></g></g></g><g fill="#00467f" fill-opacity="1"><g transform="translate(258.736461, 349.724627)"><g><path d="M 8.71875 0.3125 C 7.613281 0.3125 6.582031 0.113281 5.625 -0.28125 C 4.675781 -0.675781 3.851562 -1.210938 3.15625 -1.890625 C 2.457031 -2.566406 1.910156 -3.359375 1.515625 -4.265625 C 1.117188 -5.179688 0.921875 -6.15625 0.921875 -7.1875 C 0.921875 -8.207031 1.117188 -9.171875 1.515625 -10.078125 C 1.910156 -10.992188 2.457031 -11.789062 3.15625 -12.46875 C 3.851562 -13.144531 4.675781 -13.679688 5.625 -14.078125 C 6.582031 -14.472656 7.613281 -14.671875 8.71875 -14.671875 C 9.820312 -14.671875 10.847656 -14.472656 11.796875 -14.078125 C 12.753906 -13.679688 13.582031 -13.144531 14.28125 -12.46875 C 14.976562 -11.789062 15.523438 -10.992188 15.921875 -10.078125 C 16.316406 -9.171875 16.515625 -8.207031 16.515625 -7.1875 C 16.515625 -6.15625 16.316406 -5.179688 15.921875 -4.265625 C 15.523438 -3.359375 14.976562 -2.566406 14.28125 -1.890625 C 13.582031 -1.210938 12.753906 -0.675781 11.796875 -0.28125 C 10.847656 0.113281 9.820312 0.3125 8.71875 0.3125 Z M 8.71875 -2.5625 C 9.363281 -2.5625 9.960938 -2.679688 10.515625 -2.921875 C 11.078125 -3.160156 11.566406 -3.488281 11.984375 -3.90625 C 12.398438 -4.320312 12.726562 -4.8125 12.96875 -5.375 C 13.207031 -5.9375 13.328125 -6.539062 13.328125 -7.1875 C 13.328125 -7.820312 13.207031 -8.421875 12.96875 -8.984375 C 12.726562 -9.546875 12.398438 -10.035156 11.984375 -10.453125 C 11.566406 -10.867188 11.078125 -11.195312 10.515625 -11.4375 C 9.960938 -11.675781 9.363281 -11.796875 8.71875 -11.796875 C 8.070312 -11.796875 7.46875 -11.675781 6.90625 -11.4375 C 6.351562 -11.195312 5.867188 -10.867188 5.453125 -10.453125 C 5.035156 -10.035156 4.707031 -9.546875 4.46875 -8.984375 C 4.226562 -8.421875 4.109375 -7.820312 4.109375 -7.1875 C 4.109375 -6.539062 4.226562 -5.9375 4.46875 -5.375 C 4.707031 -4.8125 5.035156 -4.320312 5.453125 -3.90625 C 5.867188 -3.488281 6.351562 -3.160156 6.90625 -2.921875 C 7.46875 -2.679688 8.070312 -2.5625 8.71875 -2.5625 Z M 8.71875 -2.5625 "/></g></g></g><g fill="#00467f" fill-opacity="1"><g transform="translate(277.552996, 349.724627)"><g><path d="M 1.84375 -14.359375 L 7.90625 -14.359375 C 8.664062 -14.359375 9.359375 -14.238281 9.984375 -14 C 10.617188 -13.757812 11.160156 -13.421875 11.609375 -12.984375 C 12.054688 -12.554688 12.40625 -12.050781 12.65625 -11.46875 C 12.90625 -10.882812 13.03125 -10.242188 13.03125 -9.546875 C 13.03125 -8.847656 12.90625 -8.203125 12.65625 -7.609375 C 12.40625 -7.023438 12.054688 -6.515625 11.609375 -6.078125 C 11.160156 -5.648438 10.617188 -5.316406 9.984375 -5.078125 C 9.359375 -4.835938 8.664062 -4.71875 7.90625 -4.71875 L 4.921875 -4.71875 L 4.921875 0 L 1.84375 0 Z M 7.796875 -7.59375 C 8.410156 -7.59375 8.90625 -7.769531 9.28125 -8.125 C 9.65625 -8.488281 9.84375 -8.960938 9.84375 -9.546875 C 9.84375 -10.117188 9.65625 -10.582031 9.28125 -10.9375 C 8.90625 -11.300781 8.410156 -11.484375 7.796875 -11.484375 L 4.921875 -11.484375 L 4.921875 -7.59375 Z M 7.796875 -7.59375 "/></g></g></g><g fill="#00467f" fill-opacity="1"><g transform="translate(292.881189, 349.724627)"><g><path d="M 1.84375 -14.359375 L 4.609375 -14.359375 L 9.546875 -8.203125 L 14.46875 -14.359375 L 17.234375 -14.359375 L 17.234375 0 L 14.15625 0 L 14.15625 -9.4375 L 9.546875 -3.6875 L 4.921875 -9.4375 L 4.921875 0 L 1.84375 0 Z M 1.84375 -14.359375 "/></g></g></g><g fill="#00467f" fill-opacity="1"><g transform="translate(313.339287, 349.724627)"><g><path d="M 1.84375 -14.359375 L 12.515625 -14.359375 L 12.515625 -11.484375 L 4.921875 -11.484375 L 4.921875 -8.71875 L 10.875 -8.71875 L 10.875 -5.953125 L 4.921875 -5.953125 L 4.921875 -2.875 L 12.71875 -2.875 L 12.71875 0 L 1.84375 0 Z M 1.84375 -14.359375 "/></g></g></g><g fill="#00467f" fill-opacity="1"><g transform="translate(328.359679, 349.724627)"><g><path d="M 1.84375 -14.359375 L 4.609375 -14.359375 L 11.59375 -5.4375 L 11.59375 -14.359375 L 14.671875 -14.359375 L 14.671875 0 L 11.90625 0 L 4.921875 -8.921875 L 4.921875 0 L 1.84375 0 Z M 1.84375 -14.359375 "/></g></g></g><g fill="#00467f" fill-opacity="1"><g transform="translate(346.252813, 349.724627)"><g><path d="M 4.515625 -11.484375 L 0.40625 -11.484375 L 0.40625 -14.359375 L 11.6875 -14.359375 L 11.6875 -11.484375 L 7.59375 -11.484375 L 7.59375 0 L 4.515625 0 Z M 4.515625 -11.484375 "/></g></g></g></svg>