<svg xmlns="http://www.w3.org/2000/svg" xmlns:xlink="http://www.w3.org/1999/xlink" width="500" zoomAndPan="magnify" viewBox="0 0 375 374.999991" height="500" preserveAspectRatio="xMidYMid meet" version="1.0"><defs><clipPath id="c5a10d541e"><path d="M 55.210938 55.210938 L 319.527344 55.210938 L 319.527344 319.527344 L 55.210938 319.527344 Z M 55.210938 55.210938 " clip-rule="nonzero"/></clipPath><clipPath id="2edcce5a6d"><path d="M 154 148 L 222 148 L 222 250.511719 L 154 250.511719 Z M 154 148 " clip-rule="nonzero"/></clipPath><clipPath id="c851a9a661"><path d="M 185 124.328125 L 191 124.328125 L 191 139 L 185 139 Z M 185 124.328125 " clip-rule="nonzero"/></clipPath><clipPath id="acc41e1cc2"><path d="M 229 163 L 243.429688 163 L 243.429688 171 L 229 171 Z M 229 163 " clip-rule="nonzero"/></clipPath><clipPath id="b435dbfcbb"><path d="M 131.433594 194 L 146 194 L 146 202 L 131.433594 202 Z M 131.433594 194 " clip-rule="nonzero"/></clipPath><clipPath id="2b6757f1e9"><path d="M 131.433594 162 L 146 162 L 146 171 L 131.433594 171 Z M 131.433594 162 " clip-rule="nonzero"/></clipPath></defs><g clip-path="url(#c5a10d541e)"><path fill="#00467f" d="M 187.5 93.152344 C 239.570312 93.152344 281.847656 135.425781 281.847656 187.496094 C 281.847656 239.570312 239.570312 281.84375 187.5 281.84375 C 135.425781 281.84375 93.152344 239.570312 93.152344 187.496094 C 93.152344 135.425781 135.425781 93.152344 187.5 93.152344 Z M 195.367188 55.535156 C 190.125 55.222656 184.871094 55.222656 179.632812 55.535156 L 170.503906 76.421875 C 162.351562 77.671875 154.363281 79.8125 146.679688 82.804688 L 128.328125 69.28125 C 123.636719 71.632812 119.085938 74.257812 114.703125 77.148438 L 117.242188 99.804688 C 110.804688 104.957031 104.957031 110.804688 99.800781 117.242188 L 77.148438 114.703125 C 74.257812 119.085938 71.632812 123.636719 69.28125 128.328125 L 82.808594 146.679688 C 79.8125 154.363281 77.671875 162.351562 76.425781 170.5 L 55.535156 179.632812 C 55.222656 184.871094 55.222656 190.125 55.535156 195.363281 L 76.425781 204.496094 C 77.671875 212.644531 79.8125 220.632812 82.808594 228.316406 L 69.28125 246.667969 C 71.632812 251.359375 74.257812 255.910156 77.148438 260.292969 L 99.804688 257.753906 C 104.957031 264.191406 110.804688 270.039062 117.242188 275.191406 L 114.703125 297.847656 C 119.085938 300.738281 123.636719 303.363281 128.332031 305.714844 L 146.679688 292.191406 C 154.363281 295.183594 162.351562 297.324219 170.503906 298.574219 L 179.632812 319.460938 C 184.871094 319.773438 190.125 319.773438 195.367188 319.460938 L 204.496094 298.574219 C 212.644531 297.324219 220.632812 295.183594 228.316406 292.191406 L 246.667969 305.714844 C 251.359375 303.367188 255.910156 300.738281 260.292969 297.847656 L 257.753906 275.191406 C 264.191406 270.039062 270.039062 264.191406 275.195312 257.753906 L 297.847656 260.292969 C 300.738281 255.910156 303.367188 251.359375 305.714844 246.667969 L 292.191406 228.316406 C 295.183594 220.632812 297.324219 212.644531 298.574219 204.496094 L 319.460938 195.363281 C 319.773438 190.125 319.773438 184.871094 319.460938 179.632812 L 298.574219 170.503906 C 297.324219 162.351562 295.183594 154.363281 292.191406 146.679688 L 305.714844 128.332031 C 303.367188 123.636719 300.738281 119.085938 297.847656 114.707031 L 275.195312 117.242188 C 270.039062 110.808594 264.191406 104.960938 257.753906 99.804688 L 260.292969 77.148438 C 255.910156 74.257812 251.359375 71.632812 246.667969 69.28125 L 228.316406 82.808594 C 220.636719 79.8125 212.648438 77.671875 204.496094 76.425781 Z M 195.367188 55.535156 " fill-opacity="1" fill-rule="evenodd"/></g><g clip-path="url(#2edcce5a6d)"><path fill="#00467f" d="M 196.632812 243.769531 C 200.664062 243.5 203.863281 240.144531 203.863281 236.050781 L 203.863281 222.652344 C 203.863281 216.78125 206.375 211.085938 210.75 207.023438 C 218.472656 199.859375 222.359375 189.707031 221.417969 179.167969 C 219.957031 162.867188 206.53125 149.726562 190.1875 148.597656 C 188.578125 148.484375 187.011719 148.484375 185.402344 148.597656 C 169.058594 149.726562 155.632812 162.867188 154.171875 179.167969 C 153.230469 189.707031 157.117188 199.863281 164.839844 207.023438 C 169.21875 211.085938 171.726562 216.78125 171.726562 222.652344 L 171.726562 236.050781 C 171.726562 240.144531 174.929688 243.5 178.957031 243.769531 C 179.996094 247.296875 183.484375 250.664062 187.796875 250.664062 C 192.105469 250.664062 195.597656 247.296875 196.632812 243.769531 Z M 175.941406 231.105469 L 199.652344 231.105469 L 199.652344 233.238281 L 175.941406 233.238281 Z M 167.703125 203.9375 C 160.945312 197.667969 157.542969 188.777344 158.367188 179.542969 C 159.644531 165.285156 171.390625 153.785156 185.691406 152.796875 C 187.105469 152.699219 188.484375 152.699219 189.898438 152.796875 C 204.199219 153.785156 215.945312 165.285156 217.222656 179.542969 C 218.050781 188.773438 214.648438 197.667969 207.886719 203.9375 C 203.175781 208.308594 200.273438 214.269531 199.738281 220.546875 L 194.292969 220.546875 L 194.292969 193.667969 L 197.058594 193.667969 C 200.902344 193.667969 204.03125 190.539062 204.03125 186.695312 C 204.03125 182.847656 200.902344 179.71875 197.058594 179.71875 C 193.210938 179.71875 190.082031 182.847656 190.082031 186.695312 L 190.082031 189.457031 L 185.507812 189.457031 L 185.507812 186.695312 C 185.507812 182.847656 182.378906 179.71875 178.535156 179.71875 C 174.6875 179.71875 171.558594 182.847656 171.558594 186.695312 C 171.558594 190.539062 174.6875 193.667969 178.535156 193.667969 L 181.296875 193.667969 L 181.296875 220.546875 L 175.851562 220.546875 C 175.316406 214.269531 172.414062 208.308594 167.703125 203.9375 Z M 181.296875 189.457031 L 178.535156 189.457031 C 177.007812 189.457031 175.769531 188.21875 175.769531 186.695312 C 175.769531 185.167969 177.007812 183.929688 178.535156 183.929688 C 180.058594 183.929688 181.296875 185.167969 181.296875 186.695312 Z M 185.507812 193.667969 L 190.082031 193.667969 L 190.082031 220.546875 L 185.507812 220.546875 Z M 194.292969 189.457031 L 194.292969 186.695312 C 194.292969 185.167969 195.53125 183.929688 197.058594 183.929688 C 198.582031 183.929688 199.820312 185.167969 199.820312 186.695312 C 199.820312 188.21875 198.582031 189.457031 197.058594 189.457031 Z M 199.648438 224.757812 L 199.648438 226.890625 L 175.941406 226.890625 L 175.941406 224.757812 Z M 176.230469 237.449219 L 199.359375 237.449219 C 198.8125 238.703125 197.566406 239.585938 196.113281 239.585938 L 179.476562 239.585938 C 178.023438 239.585938 176.777344 238.703125 176.230469 237.449219 Z M 187.796875 246.453125 C 185.988281 246.453125 184.410156 245.191406 183.542969 243.796875 L 192.046875 243.796875 C 191.183594 245.191406 189.601562 246.453125 187.796875 246.453125 Z M 187.796875 246.453125 " fill-opacity="1" fill-rule="nonzero"/></g><g clip-path="url(#c851a9a661)"><path fill="#00467f" d="M 185.5625 126.558594 L 185.5625 136.339844 C 185.5625 137.566406 186.566406 138.570312 187.796875 138.570312 C 189.023438 138.570312 190.027344 137.566406 190.027344 136.339844 L 190.027344 126.558594 C 190.027344 125.332031 189.023438 124.328125 187.796875 124.328125 C 186.566406 124.328125 185.5625 125.332031 185.5625 126.558594 Z M 185.5625 126.558594 " fill-opacity="1" fill-rule="nonzero"/></g><path fill="#00467f" d="M 222.035156 135.664062 C 221.042969 134.941406 219.636719 135.164062 218.917969 136.15625 L 213.167969 144.070312 C 212.445312 145.0625 212.667969 146.464844 213.660156 147.1875 C 214.65625 147.910156 216.058594 147.6875 216.777344 146.695312 L 222.527344 138.78125 C 223.25 137.789062 223.027344 136.382812 222.035156 135.664062 Z M 222.035156 135.664062 " fill-opacity="1" fill-rule="nonzero"/><g clip-path="url(#acc41e1cc2)"><path fill="#00467f" d="M 243.070312 164.957031 C 242.691406 163.792969 241.425781 163.144531 240.257812 163.527344 L 230.957031 166.546875 C 229.789062 166.925781 229.144531 168.191406 229.523438 169.359375 C 229.902344 170.527344 231.167969 171.171875 232.335938 170.792969 L 241.636719 167.769531 C 242.804688 167.390625 243.449219 166.125 243.070312 164.957031 Z M 243.070312 164.957031 " fill-opacity="1" fill-rule="nonzero"/></g><path fill="#00467f" d="M 240.058594 202.457031 C 241.226562 202.835938 242.492188 202.191406 242.871094 201.023438 C 243.25 199.855469 242.605469 198.589844 241.4375 198.210938 L 232.136719 195.1875 C 230.96875 194.808594 229.703125 195.457031 229.324219 196.621094 C 228.941406 197.789062 229.585938 199.054688 230.753906 199.433594 Z M 240.058594 202.457031 " fill-opacity="1" fill-rule="nonzero"/><path fill="#00467f" d="M 218.390625 229.589844 C 219.113281 230.582031 220.515625 230.804688 221.507812 230.085938 C 222.503906 229.363281 222.722656 227.960938 222.003906 226.964844 L 216.253906 219.054688 C 215.53125 218.0625 214.128906 217.839844 213.136719 218.558594 C 212.144531 219.28125 211.921875 220.683594 212.640625 221.679688 Z M 218.390625 229.589844 " fill-opacity="1" fill-rule="nonzero"/><path fill="#00467f" d="M 152.90625 229.703125 C 153.902344 230.425781 155.304688 230.203125 156.027344 229.207031 L 161.773438 221.296875 C 162.496094 220.300781 162.273438 218.898438 161.28125 218.179688 C 160.289062 217.457031 158.886719 217.679688 158.164062 218.671875 L 152.414062 226.585938 C 151.691406 227.578125 151.914062 228.980469 152.90625 229.703125 Z M 152.90625 229.703125 " fill-opacity="1" fill-rule="nonzero"/><g clip-path="url(#b435dbfcbb)"><path fill="#00467f" d="M 134.683594 201.839844 L 143.984375 198.816406 C 145.152344 198.4375 145.796875 197.171875 145.417969 196.003906 C 145.039062 194.835938 143.773438 194.191406 142.605469 194.570312 L 133.304688 197.59375 C 132.136719 197.972656 131.492188 199.238281 131.871094 200.40625 C 132.25 201.574219 133.515625 202.21875 134.683594 201.839844 Z M 134.683594 201.839844 " fill-opacity="1" fill-rule="nonzero"/></g><g clip-path="url(#2b6757f1e9)"><path fill="#00467f" d="M 133.503906 167.152344 L 142.804688 170.175781 C 143.972656 170.554688 145.238281 169.910156 145.617188 168.742188 C 146 167.574219 145.351562 166.308594 144.1875 165.929688 L 134.882812 162.90625 C 133.714844 162.527344 132.449219 163.171875 132.070312 164.339844 C 131.691406 165.507812 132.335938 166.773438 133.503906 167.152344 Z M 133.503906 167.152344 " fill-opacity="1" fill-rule="nonzero"/></g><path fill="#00467f" d="M 158.6875 146.3125 C 159.410156 147.304688 160.8125 147.527344 161.804688 146.804688 C 162.800781 146.085938 163.019531 144.679688 162.300781 143.6875 L 156.550781 135.773438 C 155.828125 134.78125 154.425781 134.558594 153.433594 135.28125 C 152.4375 136.003906 152.21875 137.40625 152.9375 138.398438 Z M 158.6875 146.3125 " fill-opacity="1" fill-rule="nonzero"/></svg>